<svg xmlns="http://www.w3.org/2000/svg" fill="none" viewBox="0 0 40 40"><rect width="40" height="40" fill="#F50"/><path fill="#fff" d="M35.402 22.786a4.31 4.31 0 0 1-4.368 4.058H20.525a.873.873 0 0 1-.867-.873V14.684a.96.96 0 0 1 .578-.908 5.56 5.56 0 0 1 2.999-.687 6.9 6.9 0 0 1 3.556.97 7.02 7.02 0 0 1 3.301 4.532 3.8 3.8 0 0 1 1.114-.158 4.197 4.197 0 0 1 4.196 4.353"/><path fill="#fff" d="M18.324 15.393a.344.344 0 1 0-.688 0 52.5 52.5 0 0 0 0 11.148.344.344 0 0 0 .688 0c.564-3.823.337-7.31 0-11.148"/><path fill="#fff" d="M16.26 16.713a.357.357 0 0 0-.687 0 42.8 42.8 0 0 0 0 9.842.35.35 0 0 0 .688 0 38.3 38.3 0 0 0 0-9.842"/><path fill="#fff" d="M14.094 16.376a.344.344 0 1 0-.687 0 42.6 42.6 0 0 0 0 10.172.344.344 0 1 0 .687 0 41 41 0 0 0 0-10.172"/><path fill="#fff" d="M11.976 17.367a.357.357 0 0 0-.688 0 36 36 0 0 0 0 9.195.35.35 0 0 0 .688 0c.42-3.05.42-6.145 0-9.195"/><path fill="#fff" d="M9.83 19.657a.35.35 0 0 0-.688 0c-.509 2.366-.268 4.54 0 6.919a.344.344 0 1 0 .688 0c.289-2.421.537-4.546 0-6.92"/><path fill="#fff" d="M7.705 19.279a.364.364 0 0 0-.688 0 21.3 21.3 0 0 0 0 6.96.35.35 0 0 0 .688 0c.42-2.301.42-4.66 0-6.96"/><path fill="#fff" d="M5.559 20.475a.364.364 0 0 0-.688 0 9.7 9.7 0 0 0 0 4.595.344.344 0 0 0 .688 0c.44-1.5.44-3.095 0-4.595"/></svg>