<svg xmlns="http://www.w3.org/2000/svg" fill="none" viewBox="0 0 40 40"><g clip-path="url(#clip0_6009_443)"><rect width="40" height="40" fill="#1877F2"/><g clip-path="url(#clip1_6009_443)"><path fill="#1877F2" d="M42 20C42 8.402 32.598-1 21-1S0 8.402 0 20c0 10.482 7.68 19.17 17.719 20.745V26.07h-5.332V20h5.332v-4.627c0-5.263 3.135-8.17 7.932-8.17 2.297 0 4.7.41 4.7.41v5.168h-2.648c-2.608 0-3.422 1.619-3.422 3.28V20h5.825l-.932 6.07h-4.893v14.675C34.321 39.169 42 30.482 42 20"/><path fill="#fff" d="m29.174 26.07.931-6.07h-5.824v-3.94c0-1.66.814-3.279 3.422-3.279h2.649V7.613s-2.404-.41-4.701-.41c-4.797 0-7.932 2.907-7.932 8.17V20h-5.332v6.07h5.332v14.675a21.2 21.2 0 0 0 6.562 0V26.07z"/></g></g><defs><clipPath id="clip0_6009_443"><rect width="40" height="40" fill="#fff"/></clipPath><clipPath id="clip1_6009_443"><rect width="42" height="42" fill="#fff" transform="translate(-1 -1)"/></clipPath></defs></svg>