<svg xmlns="http://www.w3.org/2000/svg" fill="none" viewBox="0 0 40 40"><g clip-path="url(#clip0_6009_447)"><rect width="40" height="40"/><path fill="url(#paint0_radial_6009_447)" d="M20.013-1c-8.77 0-11.335.009-11.833.05-1.8.15-2.92.433-4.14 1.04a8.4 8.4 0 0 0-2.414 1.768C.294 3.24-.514 4.943-.807 6.966c-.142.983-.183 1.183-.192 6.2-.003 1.673 0 3.874 0 6.826 0 8.762.01 11.325.052 11.822.146 1.751.42 2.853 1.002 4.058 1.111 2.307 3.234 4.04 5.735 4.685.866.223 1.822.346 3.05.404.52.023 5.822.039 11.128.039 5.305 0 10.61-.007 11.118-.032 1.421-.067 2.247-.178 3.16-.414a8.8 8.8 0 0 0 5.735-4.695c.57-1.176.86-2.32.99-3.98.029-.361.04-6.13.04-11.893s-.013-11.522-.04-11.884c-.133-1.686-.423-2.82-1.011-4.019a8.3 8.3 0 0 0-1.798-2.463c-1.39-1.328-3.09-2.135-5.115-2.427C32.066-.95 31.871-.991 26.85-1z"/><path fill="url(#paint1_radial_6009_447)" d="M20.013-1c-8.77 0-11.335.009-11.833.05-1.8.15-2.92.433-4.14 1.04a8.4 8.4 0 0 0-2.414 1.768C.294 3.24-.514 4.943-.807 6.966c-.142.983-.183 1.183-.192 6.2-.003 1.673 0 3.874 0 6.826 0 8.762.01 11.325.052 11.822.146 1.751.42 2.853 1.002 4.058 1.111 2.307 3.234 4.04 5.735 4.685.866.223 1.822.346 3.05.404.52.023 5.822.039 11.128.039 5.305 0 10.61-.007 11.118-.032 1.421-.067 2.247-.178 3.16-.414a8.8 8.8 0 0 0 5.735-4.695c.57-1.176.86-2.32.99-3.98.029-.361.04-6.13.04-11.893s-.013-11.522-.04-11.884c-.133-1.686-.423-2.82-1.011-4.019a8.3 8.3 0 0 0-1.798-2.463c-1.39-1.328-3.09-2.135-5.115-2.427C32.066-.95 31.871-.991 26.85-1z"/><path fill="#fff" d="M20.001 8.692c-3.07 0-3.456.013-4.663.068-1.203.055-2.025.246-2.744.525a5.5 5.5 0 0 0-2.003 1.304 5.55 5.55 0 0 0-1.305 2.003c-.28.72-.472 1.542-.526 2.745-.053 1.206-.068 1.592-.068 4.663s.014 3.455.069 4.662c.055 1.203.246 2.025.525 2.744.29.744.675 1.375 1.304 2.003a5.5 5.5 0 0 0 2.003 1.306c.72.28 1.541.47 2.745.525 1.206.055 1.591.068 4.662.068 3.072 0 3.456-.013 4.662-.068 1.204-.055 2.027-.246 2.746-.525a5.5 5.5 0 0 0 2.002-1.306 5.55 5.55 0 0 0 1.305-2.003c.278-.719.469-1.54.525-2.744.054-1.206.069-1.59.069-4.662s-.015-3.456-.069-4.663c-.056-1.204-.247-2.025-.525-2.744a5.55 5.55 0 0 0-1.305-2.004 5.5 5.5 0 0 0-2.003-1.304c-.72-.28-1.543-.47-2.747-.525-1.206-.055-1.59-.068-4.662-.068zm-1.014 2.038H20c3.02 0 3.377.01 4.57.065 1.102.05 1.7.234 2.1.39.527.204.903.449 1.299.845s.64.773.846 1.3c.155.398.34.997.39 2.1.054 1.191.065 1.55.065 4.567s-.011 3.376-.066 4.569c-.05 1.102-.234 1.7-.389 2.099-.205.527-.45.903-.846 1.299s-.772.64-1.3.845c-.398.156-.997.34-2.1.39-1.191.054-1.55.066-4.569.066s-3.377-.012-4.57-.066c-1.102-.05-1.7-.235-2.099-.39a3.5 3.5 0 0 1-1.3-.846 3.5 3.5 0 0 1-.847-1.3c-.154-.398-.339-.996-.39-2.099-.053-1.192-.064-1.55-.064-4.57s.01-3.375.065-4.567c.05-1.103.235-1.701.39-2.1.204-.528.45-.905.846-1.3a3.5 3.5 0 0 1 1.3-.847c.399-.155.997-.339 2.1-.39 1.043-.047 1.447-.06 3.555-.063zm7.05 1.877a1.357 1.357 0 1 0 0 2.715 1.357 1.357 0 0 0 0-2.715m-6.036 1.586a5.807 5.807 0 1 0 0 11.615 5.807 5.807 0 0 0 0-11.615m0 2.038a3.77 3.77 0 1 1 0 7.538 3.77 3.77 0 0 1 0-7.538"/></g><defs><radialGradient id="paint0_radial_6009_447" cx="0" cy="0" r="1" gradientTransform="scale(38.7252 41.6251)rotate(-90 .663 .4)" gradientUnits="userSpaceOnUse"><stop stop-color="#FD5"/><stop offset=".1" stop-color="#FD5"/><stop offset=".5" stop-color="#FF543E"/><stop offset="1" stop-color="#C837AB"/></radialGradient><radialGradient id="paint1_radial_6009_447" cx="0" cy="0" r="1" gradientTransform="rotate(78.678 -5.254 -3.89)scale(18.6068 76.7173)" gradientUnits="userSpaceOnUse"><stop stop-color="#3771C8"/><stop offset=".128" stop-color="#3771C8"/><stop offset="1" stop-color="#60F" stop-opacity="0"/></radialGradient><clipPath id="clip0_6009_447"><rect width="40" height="40" fill="#fff"/></clipPath></defs></svg>