<svg xmlns="http://www.w3.org/2000/svg" viewBox="0 0 24 24"><rect width="24" height="24" fill="#fff"/><path d="m11.897 7.66-.316.367-.568-.49.326-.377.018-.02a3.892 3.892 0 1 1 5.503 5.504l-.019.018-.375.326-.492-.566.365-.318a3.142 3.142 0 0 0-4.442-4.443m2.74 2.232-.265.265-4.22 4.22-.264.265-.53-.53.265-.266 4.219-4.22.265-.265zM8.03 11.579l-.36.319a3.12 3.12 0 0 0-.411 3.92l-.11 1.045a3.873 3.873 0 0 1 0-5.506l.016-.014.368-.326zm-.771 4.24.41-3.921zm0 0-.11 1.044a3.94 3.94 0 0 0 5.54 0l.037-.043.28-.375-.603-.447-.261.352a3.19 3.19 0 0 1-4.465-.02 3 3 0 0 1-.418-.511"/></svg>