<svg xmlns="http://www.w3.org/2000/svg" fill="none" viewBox="0 0 40 40"><rect width="40" height="40" fill="#FFFC00"/><path fill="#fff" d="M30.455 25.768c-3.774-1.827-4.375-4.647-4.402-4.856-.032-.254-.069-.453.21-.71.27-.25 1.466-.99 1.798-1.222.549-.383.79-.766.612-1.236-.124-.326-.428-.449-.747-.449q-.15 0-.3.034c-.602.13-1.187.433-1.526.514a.5.5 0 0 1-.125.017c-.18 0-.249-.08-.231-.298.042-.658.132-1.944.028-3.145-.143-1.652-.676-2.471-1.308-3.195-.305-.351-1.725-1.86-4.464-1.86s-4.157 1.509-4.461 1.855c-.634.725-1.166 1.543-1.307 3.196-.104 1.2-.011 2.486.028 3.145.012.207-.051.297-.232.297a.5.5 0 0 1-.125-.016c-.338-.082-.923-.384-1.526-.514a1.4 1.4 0 0 0-.299-.034c-.32 0-.622.124-.747.448-.178.47.062.854.613 1.237.331.232 1.527.971 1.797 1.221.279.258.243.457.21.71-.026.213-.628 3.033-4.401 4.857-.221.107-.597.333.066.7 1.04.575 1.734.513 2.272.86.457.294.187.93.52 1.158.408.283 1.615-.02 3.175.495 1.307.431 2.101 1.648 4.42 1.648s3.136-1.222 4.42-1.648c1.557-.515 2.766-.212 3.176-.495.331-.229.062-.864.519-1.158.538-.347 1.23-.285 2.272-.86.662-.362.286-.589.065-.696"/><path fill="#000" d="M32.097 25.553c-.17-.46-.492-.707-.86-.911a2 2 0 0 0-.186-.098l-.333-.17c-1.145-.606-2.04-1.372-2.66-2.28a5 5 0 0 1-.456-.81c-.053-.15-.05-.236-.012-.315a.5.5 0 0 1 .146-.152l.537-.352c.246-.158.44-.284.565-.373.47-.329.799-.678 1.004-1.069a2.13 2.13 0 0 0 .106-1.766c-.312-.82-1.086-1.328-2.023-1.328a2.8 2.8 0 0 0-.742.098c.008-.56-.004-1.152-.054-1.734-.177-2.046-.893-3.12-1.64-3.974a6.5 6.5 0 0 0-1.668-1.343C22.687 8.33 21.4 8 20 8s-2.681.329-3.816.976a6.5 6.5 0 0 0-1.671 1.345c-.747.855-1.464 1.93-1.64 3.975-.05.582-.063 1.176-.055 1.733l-.153-.036a2.8 2.8 0 0 0-.588-.062c-.938 0-1.713.509-2.024 1.328a2.13 2.13 0 0 0 .103 1.769c.206.39.535.74 1.005 1.068.125.087.32.213.565.374.132.086.326.211.516.337q.1.066.165.166c.04.082.041.17-.018.332a5 5 0 0 1-.448.792c-.607.887-1.475 1.64-2.583 2.241-.587.312-1.197.52-1.455 1.22-.194.529-.067 1.13.426 1.637q.275.285.623.471c.481.265.993.47 1.524.61q.165.043.307.137c.18.158.155.395.394.742q.182.271.451.459c.503.347 1.068.369 1.667.392.541.02 1.155.044 1.855.275.29.096.591.282.94.498C16.93 31.295 18.078 32 20 32c1.92 0 3.077-.71 3.922-1.227.347-.212.646-.396.928-.49.7-.231 1.314-.254 1.855-.275.599-.023 1.164-.044 1.667-.392a1.7 1.7 0 0 0 .513-.56c.173-.293.168-.498.33-.642a1 1 0 0 1 .289-.131 6.8 6.8 0 0 0 1.544-.616 2.4 2.4 0 0 0 .654-.511l.006-.008c.463-.495.58-1.08.39-1.595m-1.708.918c-1.042.575-1.734.514-2.273.86-.457.295-.186.93-.519 1.159-.408.282-1.615-.02-3.175.495-1.286.425-2.107 1.648-4.42 1.648-2.314 0-3.115-1.22-4.422-1.651-1.557-.515-2.767-.213-3.176-.495-.332-.23-.062-.864-.519-1.159-.54-.347-1.231-.285-2.272-.857-.663-.366-.287-.593-.066-.7 3.772-1.827 4.375-4.647 4.401-4.856.033-.253.069-.453-.21-.71-.27-.25-1.466-.99-1.797-1.221-.55-.384-.791-.767-.613-1.237.124-.326.428-.449.747-.449q.15 0 .3.034c.602.13 1.187.433 1.525.514a.5.5 0 0 0 .125.017c.18 0 .244-.09.232-.298-.04-.659-.133-1.944-.028-3.145.142-1.652.674-2.47 1.307-3.195.304-.348 1.731-1.857 4.461-1.857s4.162 1.503 4.465 1.85c.634.724 1.167 1.542 1.308 3.195.104 1.2.014 2.486-.028 3.145-.014.217.051.297.232.297a.5.5 0 0 0 .124-.016c.339-.082.924-.384 1.527-.515a1.4 1.4 0 0 1 .3-.033c.32 0 .622.124.746.448.178.47-.062.854-.612 1.237-.332.232-1.528.971-1.797 1.221-.28.258-.243.457-.21.71.026.213.628 3.033 4.401 4.857.223.111.599.338-.064.707"/></svg>