<svg xmlns="http://www.w3.org/2000/svg" fill="none" viewBox="0 0 40 40"><rect width="40" height="40" fill="#1BD760"/><path fill="#000" d="M20 6.71c-7.158 0-12.96 5.952-12.96 13.293 0 7.342 5.802 13.292 12.96 13.292s12.96-5.95 12.96-13.292c0-7.34-5.802-13.292-12.96-13.292m5.943 19.172a.796.796 0 0 1-1.111.275c-3.043-1.907-6.874-2.338-11.385-1.281a.81.81 0 0 1-.967-.624.83.83 0 0 1 .607-.992c4.937-1.158 9.172-.659 12.588 1.482.38.24.502.75.268 1.14m1.586-3.62a.996.996 0 0 1-1.39.342c-3.483-2.196-8.794-2.832-12.914-1.55a1.01 1.01 0 0 1-1.261-.69 1.043 1.043 0 0 1 .674-1.293c4.706-1.464 10.558-.755 14.558 1.767.476.3.626.938.333 1.424m.136-3.769c-4.177-2.544-11.068-2.778-15.056-1.537-.64.2-1.318-.171-1.512-.828s.167-1.351.808-1.551c4.578-1.426 12.188-1.15 16.997 1.778a1.26 1.26 0 0 1 .424 1.704c-.34.59-1.086.785-1.66.434"/></svg>