<svg xmlns="http://www.w3.org/2000/svg" viewBox="0 0 40 40"><rect width="40" height="40" fill="#25D366"/><path fill="#fff" d="M28.7 12.2a10.92 10.92 0 0 0-17.16 13.15L10 31l5.78-1.52c1.6.87 3.38 1.33 5.2 1.33H21a10.92 10.92 0 0 0 7.7-18.61M21 28.97h-.01a9.05 9.05 0 0 1-4.61-1.26l-.33-.2-3.43.9.91-3.34-.21-.35A9.07 9.07 0 0 1 27.4 13.5 9.07 9.07 0 0 1 21 28.97m4.96-6.79c-.27-.13-1.6-.8-1.86-.88-.25-.1-.43-.14-.61.13-.18.28-.7.9-.86 1.07-.16.18-.32.2-.6.07-.27-.14-1.14-.42-2.18-1.35a8.2 8.2 0 0 1-1.52-1.89c-.16-.27-.02-.42.12-.55l.4-.48c.14-.16.19-.27.28-.46.1-.18.05-.34-.02-.47-.07-.14-.61-1.48-.84-2.03-.22-.53-.45-.45-.61-.46l-.53-.01a1 1 0 0 0-.72.34c-.25.27-.96.93-.96 2.27s.98 2.64 1.12 2.82c.13.18 1.92 2.93 4.65 4.11.65.28 1.16.45 1.55.58.65.2 1.25.17 1.72.1.52-.07 1.6-.66 1.84-1.3.22-.63.22-1.17.15-1.29-.06-.11-.25-.18-.52-.32"/></svg>