<svg xmlns="http://www.w3.org/2000/svg" fill="none" viewBox="0 0 40 40"><rect width="40" height="40" fill="red"/><g clip-path="url(#clip0_6009_471)"><path fill="#fff" d="M31.284 14.266a2.97 2.97 0 0 0-2.09-2.098c-1.832-.501-9.206-.501-9.206-.501s-7.374.015-9.207.517a2.97 2.97 0 0 0-2.09 2.097c-.553 3.269-.768 8.249.016 11.387a2.97 2.97 0 0 0 2.09 2.097c1.832.502 9.206.502 9.206.502s7.375 0 9.207-.502a2.97 2.97 0 0 0 2.09-2.097c.584-3.273.764-8.25-.016-11.402"/><path fill="red" d="m17.641 23.524 6.118-3.557-6.118-3.557z"/></g><defs><clipPath id="clip0_6009_471"><rect width="23.611" height="16.667" fill="#fff" transform="translate(8.195 11.667)"/></clipPath></defs></svg>